<mxfile host="app.diagrams.net" modified="2023-12-04T14:51:52.545Z" agent="Mozilla/5.0 (Macintosh; Intel Mac OS X 10_15_7) AppleWebKit/537.36 (KHTML, like Gecko) Chrome/119.0.0.0 Safari/537.36" version="21.8.2" etag="W5qMsRAdajakfebUGPdA" type="github">
  <diagram name="Page-1" id="z71LElQw0vFR1fhd4HeU">
    <mxGraphModel>
      <root>
        <mxCell id="0" />
        <mxCell id="1" parent="0" />
      </root>
    </mxGraphModel>
  </diagram>
</mxfile>
